<?xml version="1.0" encoding="UTF-8" standalone="no"?>
<!-- Created with Inkscape (http://www.inkscape.org/) -->

<svg
   width="105.83588mm"
   height="110.76103mm"
   viewBox="0 0 105.83588 110.76103"
   version="1.1"
   id="svg1"
   xml:space="preserve"
   xmlns="http://www.w3.org/2000/svg"
   xmlns:svg="http://www.w3.org/2000/svg"><defs
     id="defs1" /><g
     id="layer1"
     transform="translate(85.064542,-82.484847)"><path
       id="path1"
       style="fill:#ffffff"
       d="m -73.848722,82.490572 -2.343527,1.117761 c -2.724098,1.299651 -5.961539,4.230497 -7.047631,6.379973 -1.92468,3.809116 -1.822111,1.111234 -1.822111,47.869944 0,48.29528 -0.180041,44.76965 2.486153,48.70142 1.955021,2.88302 4.675077,5.02315 7.744747,6.09369 1.405202,0.49008 6.291683,0.55676 42.553475,0.58136 44.252433,0.0301 41.7449964,0.12874 45.550708,-1.79421 2.149476,-1.0861 5.080838,-4.32354 6.380489,-7.04763 l 1.117761,-2.34353 v -44.2035 -44.202987 l -1.23455,-2.532662 c -0.915805,-1.878565 -1.896435,-3.161044 -3.796151,-4.965588 -4.174254,-3.965133 -0.06358,-3.654041 -48.270955,-3.654041 z m 16.268774,9.924459 c 1.188045,-0.05582 2.428646,0.109313 4.031795,0.481108 5.342152,1.238929 9.415547,4.580197 12.046293,9.881051 1.558569,3.14047 1.595769,3.29396 1.595769,6.60528 0,3.6346 -0.66855,6.94808 -1.825729,9.05009 -0.917277,1.66623 -5.784726,6.59202 -7.157702,7.24349 -0.588987,0.27947 -2.298587,0.83721 -3.798735,1.2392 -2.815772,0.75454 -5.565071,0.90713 -6.797001,0.37776 -0.388056,-0.16676 -1.159246,-0.31403 -1.71359,-0.32763 -3.092304,-0.0761 -9.20005,-4.68687 -10.938351,-8.25738 -1.24651,-2.56036 -2.341009,-6.90966 -2.343009,-9.31158 -0.0038,-4.50225 3.250779,-10.589909 6.98562,-13.066899 2.394778,-1.58824 3.027715,-1.901555 6.199105,-3.069064 1.392212,-0.512525 2.52749,-0.789609 3.715535,-0.845426 z m 45.190523,6.302974 c 16.4629622,0 16.95276,0.01995 17.638717,0.7059 0.983606,0.983615 0.8807475,1.995565 -0.3255615,3.201875 l -1.0314616,1.03146 -16.1664549,-0.0279 c -8.891695,-0.0153 -16.405097,-0.1157 -16.696139,-0.22272 -1.790396,-0.65831 -2.334674,-2.70636 -1.058333,-3.982705 0.685957,-0.68595 1.176272,-0.7059 17.639233,-0.7059 z m -36.563659,3.768765 c -0.214028,0.0187 -0.42836,0.0731 -0.637687,0.16846 -0.475791,0.21678 -2.722068,2.51524 -4.991944,5.1077 -4.833274,5.52015 -5.093141,5.62761 -7.548376,3.12591 -1.363037,-1.38883 -1.746047,-1.5875 -3.059762,-1.5875 -1.123572,0 -1.593822,0.17208 -1.867069,0.68264 -0.840844,1.57114 -0.443102,2.38444 2.851505,5.83066 2.918247,3.05254 3.336681,3.36465 4.508252,3.36465 1.121169,0 1.572893,-0.29081 3.426664,-2.20503 3.746029,-3.86819 9.561108,-10.64526 9.80302,-11.42463 0.488322,-1.57324 -0.986408,-3.19352 -2.484603,-3.06286 z m 36.563659,10.34252 c 16.4629622,0 16.95276,0.0194 17.638717,0.70538 0.388055,0.38806 0.7053833,1.02324 0.7053833,1.41129 0,0.38806 -0.3173283,1.02322 -0.7053833,1.41128 -0.665652,0.66567 -1.1795834,0.70503 -9.0842,0.71003 -4.6081591,0.003 -8.695628,0.051 -9.083683,0.10749 -0.388056,0.0565 -4.330592,0.0146 -8.760706,-0.093 -7.440653,-0.18075 -8.092536,-0.24747 -8.554516,-0.88005 -0.693305,-0.94932 -0.625271,-1.83659 0.205155,-2.66702 0.685957,-0.68595 1.176272,-0.70538 17.639233,-0.70538 z m 10.2303837,13.40538 c 6.2324066,0 6.7522903,0.0499 7.4083333,0.7059 0.391975,0.39197 0.7053833,1.17575 0.7053833,1.76372 0,0.58796 -0.3134083,1.37174 -0.7053833,1.76372 -0.656043,0.65605 -1.1759267,0.7059 -7.4083333,0.7059 -6.2324071,0 -6.7522905,-0.0499 -7.4083334,-0.7059 -0.391975,-0.39198 -0.7053833,-1.17576 -0.7053833,-1.76372 0,-0.58797 0.3134083,-1.37175 0.7053833,-1.76372 0.6560429,-0.65606 1.1759263,-0.7059 7.4083334,-0.7059 z m -29.5330807,0.76223 c 2.860528,0.0952 3.936622,0.28386 5.217769,0.91519 5.170161,2.54777 7.271248,7.01748 6.922058,14.72675 -0.213547,4.71462 -0.642918,7.00742 -1.655713,8.84029 -1.147284,2.07625 -3.779419,4.60904 -5.834786,5.61464 -1.555557,0.76106 -2.305338,0.89035 -5.137671,0.88935 -2.849371,-0.001 -3.564484,-0.12733 -5.079793,-0.89607 -3.443185,-1.74678 -5.271699,-4.27213 -6.849194,-9.45833 -1.364235,-4.48508 -0.893819,-10.70088 1.081071,-14.27924 1.108391,-2.00833 3.768278,-4.53318 5.845638,-5.54953 1.7291,-0.846 2.186825,-0.91302 5.490621,-0.80305 z m 11.133687,34.51779 c 0.515247,0.001 1.357934,0.22181 1.872754,0.49041 0.514818,0.26861 1.52253,0.68231 2.23914,0.91881 0.716611,0.2365 1.724319,0.64968 2.239139,0.91829 0.51482,0.26861 1.078465,0.4894 1.253154,0.4904 1.16247,0.008 4.362554,2.14492 6.2905721,4.20078 1.901232,2.02729 2.3514234,2.77711 3.2091064,5.34179 0.881488,2.63586 0.9844177,3.39449 0.8821167,6.51124 l -0.1157552,3.52743 -10.680485,0.0935 c -8.364162,0.0731 -10.712606,-0.004 -10.827763,-0.35295 -0.08088,-0.24539 -0.232534,-1.7158 -0.33693,-3.26801 -0.304968,-4.53445 -0.753022,-8.4587 -1.014409,-8.88163 -0.32586,-0.52725 0.495055,-2.79037 2.440678,-6.72879 1.429687,-2.89403 1.717847,-3.2633 2.548682,-3.2613 z m -23.097815,0.0207 c 1.049954,-0.13247 1.685825,0.8375 3.12384,3.85765 1.666055,3.49908 2.157875,5.14483 1.879989,6.2885 -0.268993,1.10707 -0.856449,5.8272 -1.193209,9.5865 l -0.237195,2.64583 -10.494966,0.0935 -10.494967,0.0935 v -4.80539 c 0,-4.6377 0.0376,-4.88518 1.084688,-7.07916 2.051939,-4.29945 5.053791,-6.70815 10.688754,-8.57725 1.915976,-0.63552 3.900695,-1.37287 4.410066,-1.63866 0.487046,-0.25413 0.883015,-0.42093 1.233,-0.46509 z m 11.510925,1.38855 c 1.646297,0 2.273802,0.15662 2.822567,0.70538 0.934602,0.93461 0.915487,2.92791 -0.04237,4.47776 -0.797932,1.29108 -0.799892,1.01749 0.06718,7.86929 0.184152,1.4552 0.429538,3.87632 0.545186,5.38003 l 0.209806,2.7342 h -3.604948 -3.604947 l 0.217041,-2.38125 c 0.11921,-1.30967 0.375926,-3.65159 0.570507,-5.20381 0.822981,-6.56509 0.826987,-7.70939 0.03307,-9.19066 -1.54468,-2.88204 -0.586833,-4.39094 2.78691,-4.39094 z" /></g></svg>
