<?xml version="1.0" encoding="UTF-8" standalone="no"?>
<!-- Created with Inkscape (http://www.inkscape.org/) -->

<svg
   width="210mm"
   height="297mm"
   viewBox="0 0 210 297"
   version="1.1"
   id="svg1"
   xml:space="preserve"
   inkscape:version="1.4 (86a8ad7, 2024-10-11)"
   sodipodi:docname="ethica_jobs_logo.svg"
   xmlns:inkscape="http://www.inkscape.org/namespaces/inkscape"
   xmlns:sodipodi="http://sodipodi.sourceforge.net/DTD/sodipodi-0.dtd"
   xmlns="http://www.w3.org/2000/svg"
   xmlns:svg="http://www.w3.org/2000/svg"><sodipodi:namedview
     id="namedview1"
     pagecolor="#505050"
     bordercolor="#eeeeee"
     borderopacity="1"
     inkscape:showpageshadow="0"
     inkscape:pageopacity="0"
     inkscape:pagecheckerboard="0"
     inkscape:deskcolor="#505050"
     inkscape:document-units="mm"
     showborder="false"
     inkscape:zoom="0.55722855"
     inkscape:cx="81.654108"
     inkscape:cy="460.31382"
     inkscape:window-width="2560"
     inkscape:window-height="1511"
     inkscape:window-x="-9"
     inkscape:window-y="-9"
     inkscape:window-maximized="1"
     inkscape:current-layer="layer1" /><defs
     id="defs1" /><g
     inkscape:label="Layer 1"
     inkscape:groupmode="layer"
     id="layer1"><path
       style="fill:#ffffff"
       d="m -74.831329,192.65328 c -3.06967,-1.07054 -5.789304,-3.21042 -7.744325,-6.09344 -2.666194,-3.93177 -2.48623,-0.40653 -2.48623,-48.70181 0,-46.758712 -0.102701,-44.060412 1.821979,-47.869528 1.086092,-2.149476 4.323803,-5.080375 7.047901,-6.380026 l 2.343491,-1.118066 h 41.318081 c 48.207378,0 44.096927,-0.311149 48.271181,3.653984 1.899716,1.804544 2.88017,3.087119 3.795975,4.965684 l 1.234717,2.53273 v 44.203222 44.20321 l -1.118066,2.3435 c -1.299651,2.72409 -4.23055,5.9618 -6.380026,7.0479 -3.8057112,1.92295 -1.298686,1.82421 -45.551119,1.79412 -36.261792,-0.0246 -41.148357,-0.0914 -42.553559,-0.58148 z m 34.985622,-11.38511 c 0.33676,-3.7593 0.924342,-8.4797 1.193335,-9.58677 0.277886,-1.14367 -0.214104,-2.78914 -1.880159,-6.28822 -1.917354,-4.02686 -2.408692,-4.4095 -4.356875,-3.39297 -0.509371,0.26579 -2.493746,1.00322 -4.409722,1.63874 -5.634963,1.8691 -8.636951,4.27812 -10.68889,8.57757 -1.047093,2.19398 -1.084979,2.44117 -1.084979,7.07887 v 4.8055 l 10.495138,-0.0934 10.495138,-0.0934 z m 11.0927,0.0882 c -0.115648,-1.50371 -0.36094,-3.92465 -0.545092,-5.37985 -0.867072,-6.8518 -0.864752,-6.5786 -0.06682,-7.86968 0.957862,-1.54985 0.976522,-3.54294 0.04192,-4.47755 -0.548765,-0.54876 -1.175925,-0.70555 -2.822222,-0.70555 -3.373743,0 -4.331604,1.50929 -2.786924,4.39133 0.793914,1.48127 0.789781,2.62552 -0.0332,9.19061 -0.194581,1.55222 -0.45132,3.89379 -0.57053,5.20346 l -0.216747,2.38125 h 3.604941 3.604942 z m 26.1805202,-0.97013 c 0.102301,-3.11675 -4.56e-4,-3.87539 -0.881944,-6.51125 -0.857683,-2.56468 -1.308196,-3.31451 -3.209428,-5.3418 -1.9280181,-2.05586 -5.1276672,-4.19256 -6.2901372,-4.20051 -0.174689,-0.001 -0.738832,-0.22195 -1.253652,-0.49056 -0.51482,-0.26861 -1.522353,-0.68188 -2.238964,-0.91838 -0.71661,-0.2365 -1.724144,-0.64978 -2.238962,-0.91839 -0.51482,-0.2686 -1.357603,-0.48935 -1.87285,-0.49055 -0.830835,-0.002 -1.119184,0.36699 -2.548871,3.26102 -1.945623,3.93842 -2.766611,6.20187 -2.440751,6.72912 0.261387,0.42293 0.709673,4.34685 1.014641,8.8813 0.104396,1.55221 0.255982,3.02298 0.336859,3.26837 0.115157,0.34939 2.463496,0.4259 10.827658,0.35278 l 10.6806092,-0.0934 z M -27.042838,157.09376 c 2.055367,-1.0056 4.687522,-3.53846 5.834806,-5.61471 1.012795,-1.83287 1.442189,-4.12541 1.655736,-8.84003 0.34919,-7.70927 -1.751662,-12.17902 -6.921823,-14.72679 -1.281147,-0.63133 -2.357701,-0.82018 -5.218229,-0.9154 -3.303796,-0.10997 -3.761223,-0.0431 -5.490323,0.8029 -2.07736,1.01635 -4.737164,3.54168 -5.845555,5.55001 -1.97489,3.57836 -2.445618,9.79412 -1.081383,14.2792 1.577495,5.1862 3.406229,7.71148 6.849414,9.45826 1.515309,0.76874 2.23044,0.8949 5.079811,0.89617 2.832333,0.001 3.581989,-0.12855 5.137546,-0.88961 z M 5.2492198,130.46819 c 0.391975,-0.39198 0.705555,-1.17593 0.705555,-1.76389 0,-0.58797 -0.31358,-1.37192 -0.705555,-1.76389 -0.656043,-0.65604 -1.175926,-0.70556 -7.4083326,-0.70556 -6.2324071,0 -6.7522901,0.0495 -7.408333,0.70556 -0.391975,0.39197 -0.7055552,1.17592 -0.7055552,1.76389 0,0.58796 0.3135802,1.37191 0.7055552,1.76389 0.6560429,0.65604 1.1759259,0.70555 7.408333,0.70555 6.2324066,0 6.7522896,-0.0495 7.4083326,-0.70555 z M -52.68804,126.91507 c 1.500148,-0.40199 3.209441,-0.95955 3.798428,-1.23902 1.372976,-0.65147 6.24039,-5.57723 7.157667,-7.24346 1.157179,-2.10201 1.825613,-5.41572 1.825613,-9.05032 0,-3.31132 -0.03706,-3.46471 -1.595629,-6.60518 -2.630746,-5.300853 -6.703925,-8.641883 -12.046077,-9.880812 -3.206298,-0.74359 -4.963117,-0.66105 -7.747541,0.364 -3.17139,1.167509 -3.80445,1.480929 -6.199228,3.069169 -3.734841,2.47699 -6.989203,8.564503 -6.985444,13.066753 0.002,2.40192 1.096311,6.75128 2.342821,9.31164 1.738301,3.57051 7.846176,8.18129 10.93848,8.25736 0.554344,0.0136 1.325397,0.16123 1.713453,0.32799 1.23193,0.52937 3.981685,0.37642 6.797457,-0.37812 z m -11.518244,-11.10051 c -3.294607,-3.44622 -3.692367,-4.25954 -2.851523,-5.83068 0.273247,-0.51056 0.743255,-0.68236 1.866827,-0.68236 1.313715,0 1.696613,0.19867 3.05965,1.5875 2.455235,2.5017 2.715085,2.39409 7.548359,-3.12606 2.269876,-2.59246 4.516331,-4.89093 4.992122,-5.10771 1.674619,-0.76301 3.680622,1.09646 3.122539,2.89445 -0.241912,0.77937 -6.057214,7.55655 -9.803243,11.42474 -1.853771,1.91422 -2.305455,2.20486 -3.426624,2.20486 -1.171571,0 -1.58986,-0.3122 -4.508107,-3.36474 z m 60.3714772,1.25289 c 7.9046166,-0.005 8.4183746,-0.0447 9.0840266,-0.71037 0.388055,-0.38806 0.705555,-1.02306 0.705555,-1.41112 0,-0.38805 -0.3175,-1.02305 -0.705555,-1.41111 -0.685957,-0.68595 -1.175926,-0.70555 -17.6388878,-0.70555 -16.462961,0 -16.95293,0.0196 -17.638887,0.70555 -0.830426,0.83043 -0.898753,1.71728 -0.205448,2.6666 0.46198,0.63258 1.114208,0.69971 8.554861,0.88046 4.430114,0.10762 8.372252,0.14947 8.760308,0.093 0.388055,-0.0565 4.4758681,-0.10482 9.0840272,-0.10747 z m 8.7583856,-14.44157 c 1.206309,-1.20631 1.309247,-2.21853 0.325641,-3.202143 -0.685957,-0.68595 -1.175926,-0.70555 -17.6388878,-0.70555 -16.462961,0 -16.95293,0.0196 -17.638887,0.70555 -1.276341,1.276343 -0.732063,3.324753 1.058333,3.983063 0.291042,0.10702 7.804191,0.20711 16.695886,0.22243 l 16.1667178,0.0279 z m 39.3887922,80.6305 c -2.52656,-1.06351 -4.23561,-2.3474 -5.56192,-4.17832 -1.16458,-1.60766 -2.45679,-4.82314 -2.45679,-6.11339 v -0.86871 h 3.88055 c 3.32085,0 3.88056,0.0813 3.88056,0.56405 0,1.10103 1.19391,3.05658 2.26482,3.70961 1.35347,0.82535 4.4034,0.88365 5.89431,0.11267 0.64025,-0.33109 1.33711,-1.14412 1.73862,-2.02848 0.62135,-1.36855 0.67065,-2.48307 0.67783,-15.32243 l 0.008,-13.84653 h 3.88056 3.88055 v 13.44283 c 0,11.08604 -0.0973,13.81843 -0.55515,15.58523 -0.78078,3.01315 -1.97286,5.19626 -3.67911,6.73776 -2.33702,2.11134 -4.227,2.77962 -8.28935,2.93102 -3.11791,0.1162 -3.76426,0.0319 -5.56323,-0.72531 z m 32.177501,0.18931 c -4.08369,-1.49846 -7.440631,-4.56665 -8.866221,-8.1036 -0.68215,-1.69247 -0.8107,-2.6547 -0.8107,-6.06835 0,-3.42873 0.12723,-4.37294 0.82165,-6.09762 1.16043,-2.88204 4.094901,-5.94898 7.061831,-7.38061 2.0666,-0.9972 2.77404,-1.14774 5.99565,-1.27588 3.33519,-0.13267 3.86604,-0.0616 6.10896,0.81843 3.23492,1.26918 6.364096,4.11598 7.756466,7.05651 0.95141,2.00929 1.00127,2.35827 0.98282,6.87917 -0.0148,3.62724 -0.16191,5.11305 -0.61714,6.23311 -2.18138,5.3671 -7.396426,8.59144 -13.826746,8.54876 -1.88053,-0.0125 -3.59817,-0.2399 -4.60657,-0.60992 z m 9.07859,-6.9787 c 1.93104,-1.5547 2.91167,-4.13552 2.92547,-7.69923 0.0129,-3.33461 -0.79142,-5.34372 -2.73184,-6.82375 -1.14662,-0.87457 -1.53267,-0.96055 -4.31288,-0.96055 -2.80287,0 -3.16014,0.0813 -4.35224,0.99058 -2.27391,1.73439 -2.78027,3.23577 -2.64441,7.8407 0.1129,3.82643 0.15919,4.03353 1.18466,5.29936 1.70259,2.10167 3.08897,2.68663 6.05069,2.55303 2.21,-0.0997 2.70316,-0.25222 3.88055,-1.20014 z m 26.947558,6.96632 c -0.86083,-0.35842 -2.15984,-1.15095 -2.88669,-1.76118 -0.72686,-0.61022 -1.49098,-1.1095 -1.69806,-1.1095 -0.20708,0 -0.3765,0.63499 -0.3765,1.4111 v 1.41111 h -3.52778 -3.52778 v -19.75555 -19.75555 h 3.88056 3.88055 v 6.70278 c 0,4.62335 0.11991,6.70277 0.38652,6.70277 0.21258,0 0.83605,-0.32009 1.38548,-0.71133 2.22185,-1.58209 3.94419,-2.09524 7.04745,-2.09969 2.43726,-0.004 3.34166,0.15542 4.83114,0.8489 2.62639,1.22283 4.80333,3.38606 6.1658,6.12697 1.17329,2.36034 1.17389,2.36424 1.17171,7.65321 -0.002,4.99662 -0.0548,5.40417 -0.94599,7.30944 -1.24923,2.67071 -3.67577,5.20646 -6.18586,6.46429 -2.65121,1.32854 -7.13013,1.59084 -9.60055,0.56223 z m 6.46202,-6.87167 c 1.80122,-1.37386 2.31517,-2.28986 2.91742,-5.19965 0.79467,-3.8395 -0.0608,-6.93495 -2.51109,-9.08634 -1.53303,-1.34603 -2.43327,-1.59511 -5.07456,-1.40405 -3.9958,0.28903 -6.03978,3.07848 -6.04604,8.2511 -0.007,6.08582 2.22711,8.77626 7.09104,8.53804 1.90426,-0.0933 2.56882,-0.29486 3.62323,-1.0991 z m 20.13616,6.34805 c -3.58499,-1.71805 -5.45388,-4.04128 -5.45388,-6.77975 v -1.21176 h 3.14015 3.14016 l 0.7387,1.25202 c 0.90948,1.54144 2.55942,2.27576 5.11342,2.27576 2.45726,0 4.09535,-1.18498 4.09535,-2.96254 0,-1.87031 -0.61605,-2.32467 -4.07181,-3.00316 -8.81117,-1.72996 -12.12743,-4.34015 -12.14822,-9.56175 -0.0132,-3.31132 1.60712,-5.68638 5.05464,-7.40913 1.93948,-0.96917 2.40104,-1.05229 5.84187,-1.05203 3.37259,2.5e-4 3.94223,0.0978 5.85589,1.00316 3.1394,1.48521 5.11207,3.96562 5.11207,6.42786 v 1.03537 h -3.14015 -3.14016 l -0.72178,-1.22333 c -0.84109,-1.42555 -1.7906,-1.74699 -4.49739,-1.52252 -2.17671,0.18051 -2.84738,0.66142 -3.16967,2.27285 -0.30389,1.51948 0.5899,2.32593 3.21794,2.90351 5.54227,1.21805 6.81489,1.57805 8.4526,2.39106 3.41515,1.6954 4.40972,3.26175 4.40972,6.94487 0,5.88732 -4.57229,9.40021 -12.23508,9.40021 -2.82468,0 -3.37145,-0.11539 -5.59437,-1.1807 z m 8.40695,-45.88971 c -4.02428,-1.92859 -6.54487,-5.02312 -7.67058,-9.41716 -0.99382,-3.87928 -0.45677,-8.78519 1.30144,-11.88857 1.32782,-2.34372 3.85609,-4.67173 6.43308,-5.92355 2.36215,-1.14745 2.62044,-1.1946 6.52639,-1.19129 3.61035,0.003 4.2847,0.10429 6.00717,0.90174 3.45773,1.60082 6.70278,5.42558 6.70278,7.9002 v 1.07239 h -3.21265 -3.21264 l -1.65603,-1.76389 -1.65603,-1.76389 h -2.57454 c -4.1089,0 -5.81787,1.19324 -6.92232,4.83331 -0.28254,0.9312 -0.51543,2.82589 -0.51753,4.21044 -0.003,2.07644 0.16922,2.84858 0.98412,4.40848 1.31465,2.51653 2.95539,3.46736 5.99694,3.4753 2.60526,0.007 3.89041,-0.55734 5.20959,-2.28688 l 0.94205,-1.23509 h 3.68607 c 3.66025,0 3.68435,0.006 3.44022,0.79375 -1.14181,3.68646 -4.45663,7.15484 -7.97297,8.34233 -1.6568,0.55951 -3.07011,0.7417 -5.7537,0.7417 -3.32547,0 -3.72197,-0.0789 -6.08086,-1.20932 z m 27.59056,0.37061 c -2.10196,-0.99123 -3.06006,-1.96667 -4.02731,-4.10018 -1.29566,-2.85794 -0.70528,-7.04059 1.31268,-9.29983 2.0931,-2.34338 5.61258,-3.40017 11.32378,-3.40017 h 4.26723 v -1.56454 c 0,-2.16538 -0.49235,-3.25476 -1.84329,-4.07842 -1.39642,-0.8514 -2.44705,-0.8852 -4.60977,-0.14829 -1.1609,0.39556 -1.85739,0.91075 -2.38467,1.76389 l -0.74481,1.20514 h -3.32262 c -3.91308,0 -3.94605,-0.0508 -2.24323,-3.45847 1.15666,-2.31467 2.79581,-3.8549 5.32281,-5.00158 1.23941,-0.56241 2.31719,-0.69812 5.59225,-0.70415 3.74146,-0.007 4.22314,0.0711 6.19408,1.00358 2.50001,1.18272 4.31823,3.13398 5.19214,5.57208 0.52777,1.4724 0.61147,3.12263 0.60997,12.02534 l -0.002,10.31875 h -3.52777 -3.52778 v -1.05833 c 0,-1.06858 -0.75978,-1.47404 -1.2564,-0.67048 -0.13184,0.21332 -1.21278,0.8482 -2.40207,1.41083 -1.86074,0.88028 -2.58064,1.02254 -5.16098,1.01981 -2.41196,-0.003 -3.34369,-0.1659 -4.76249,-0.83498 z m 9.33197,-5.03172 c 0.62144,-0.12428 1.67316,-0.73834 2.33715,-1.36457 1.11946,-1.05578 1.20726,-1.29593 1.20726,-3.3018 v -2.1632 h -3.32842 c -4.86416,0 -6.54935,0.89037 -6.54935,3.46035 0,1.71419 0.54342,2.43871 2.29772,3.06341 1.59276,0.56717 2.41668,0.62961 4.03564,0.30581 z M 39.821441,118.12096 V 98.718187 h 12.34722 12.34722 v 3.168613 3.16862 l -8.37847,0.0946 -8.37847,0.0946 -0.0982,4.85069 -0.0981,4.85069 h 7.77106 7.77107 v 3.175 3.175 h -7.76111 -7.76111 v 4.93889 4.93889 h 8.81944 8.81944 v 3.175 3.175 h -12.7 -12.69999 z m 38.100001,19.00822 c -0.98839,-0.39205 -3.01666,-2.23373 -3.64493,-3.30961 -0.271,-0.46406 -0.47239,-3.78457 -0.58841,-9.70138 l -0.17639,-8.99584 -2.381251,-0.10431 -2.38125,-0.10431 v -3.15888 -3.15888 h 2.11667 2.116671 v -3.52778 -3.52778 h 3.86862 3.86862 l 0.10013,3.79236 0.10013,3.79236 3.0868,0.10193 3.08681,0.10193 v 2.80849 2.80848 h -3.175 -3.175 v 6.8562 c 0,3.77092 0.15479,7.26334 0.34398,7.76095 0.50418,1.3261 2.35091,2.31331 4.33032,2.31487 l 1.6757,0.001 v 2.82222 2.82222 l -4.14514,-0.0224 c -2.27983,-0.0123 -4.54202,-0.17979 -5.02708,-0.3722 z M 93.443658,117.76819 V 98.012627 h 3.52777 3.527782 v 6.702783 c 0,4.83504 0.1136,6.70278 0.40767,6.70278 0.22422,0 0.90464,-0.37905 1.51203,-0.84233 1.71416,-1.30745 4.15803,-1.97989 7.19559,-1.97989 3.23532,0 5.66311,0.99996 7.49596,3.08746 2.37947,2.71007 2.42242,2.97493 2.431,14.99239 l 0.008,10.84792 h -3.52778 -3.52778 v -8.40264 c 0,-9.51516 -0.30538,-11.36219 -2.13285,-12.8999 -2.80028,-2.35628 -7.3079,-1.24181 -9.06784,2.24195 -0.75954,1.50349 -0.79375,1.94805 -0.79375,10.3159 v 8.74469 h -3.527782 -3.52777 z m 33.161102,5.64444 v -14.11111 h 3.88056 3.88056 v 14.11111 14.11111 h -3.88056 -3.88056 z m 2.25359,-17.96658 c -1.43663,-0.61528 -2.25359,-2.09906 -2.25359,-4.09306 0,-1.683123 0.11625,-1.958223 1.247,-2.951033 1.79151,-1.57297 3.67418,-1.53593 5.31467,0.10456 1.04952,1.04952 1.19945,1.42364 1.19945,2.993053 0,1.45827 -0.18138,1.99657 -0.97014,2.87928 -1.04917,1.17412 -3.13967,1.66581 -4.53739,1.0672 z"
       id="path1"
       inkscape:export-filename="..\Desktop\bounswe2025group4\apps\frontend\public\ethica-logo.svg"
       inkscape:export-xdpi="10.262627"
       inkscape:export-ydpi="10.262627" /></g></svg>
